<svg width="140" height="140" fill="none" xmlns="http://www.w3.org/2000/svg"><g clip-path="url(#clip0)"><path d="M64.637 122.728l.419.233-.269.413-.326.343-.234.408-.26.392-.23.419-.352-.295-.42-.181-.332-.317-.44-.198.321-.376.215-.418.287-.373.25-.398.247-.393.385.223.365.263.374.255zm-2.6 3.142l-.367-.263-.384-.223-.247.393-.25.398-.287.372-.215.419-.322.375.44.198.332.318.42.181.353.295.23-.419.26-.392.234-.408.326-.343.27-.413-.42-.233-.374-.255zm-2.843-18.121l-.302-.335-.328-.3-.336.343-.34.347-.37.313-.31.375-.405.308.388.288.257.381.373.265.282.363.323-.371.349-.339.326-.359.402-.277.362-.357-.36-.317-.312-.328zm-9.02 8.863l-.301-.335-.328-.3-.337.343-.34.347-.37.314-.31.374-.405.308.389.288.257.381.372.266.282.363.324-.372.348-.339.326-.359.403-.277.362-.357-.36-.317-.312-.328zm3.007-2.955l-.302-.334-.328-.3-.336.343-.34.347-.37.313-.31.375-.405.308.388.288.257.38.373.266.282.363.324-.371.348-.339.326-.36.403-.277.361-.356-.36-.318-.311-.328zm3.006-2.954l-.302-.335-.328-.299-.336.342-.34.347-.37.314-.31.374-.405.309.389.287.257.381.372.266.282.363.324-.372.348-.339.326-.359.403-.277.361-.357-.36-.317-.31-.328zm10.174 8.564l-.366-.263-.384-.224-.248.394-.25.398-.286.372-.215.418-.322.376.44.198.332.318.421.181.353.294.229-.419.26-.392.234-.407.326-.344.269-.412-.42-.234-.373-.254zm8.025-26.448l-.313-.323-.328-.313-.317.337-.324.324-.33.316-.336.309-.305.338-.364.3.367.295.294.345.31.325.315.31.327-.31.338-.31.305-.34.323-.324.325-.317.343-.307-.313-.333-.317-.322zm11.387 12.844l-.42-.164-.428-.149-.133.398-.145.39-.154.384-.162.381-.122.395-.192.385.456.115.41.192.418.167.415.151.153-.377.164-.382.12-.397.146-.388.148-.384.17-.382-.423-.174-.421-.161zm1.453-3.785l-.42-.165-.428-.148-.148.438-.161.429-.17.425-.177.421-.137.434-.208.425.456.115.41.192.419.167.414.152.17-.418.179-.422.136-.438.16-.428.164-.423.184-.421-.422-.174-.421-.161zm-3.512-8.248l-.376-.25-.384-.236-.376-.227-.224.356-.241.358-.249.352-.213.375-.274.331-.183.392-.26.34-.241.355-.224.354.359.261.372.257.405.202.353.234.236-.329.236-.362.245-.354.249-.35.21-.374.231-.361.235-.356.254-.346.244-.365-.384-.257zm-5.362-3.442l.316-.288.283-.314-.315-.31-.316-.323-.299-.337-.32-.332-.322.31-.314.305-.3.314-.297.32-.306.305-.313.3-.318.291-.286.32-.348.285.367.294.294.344.311.326.315.31.32-.286.32-.298.272-.343.303-.311.33-.283.309-.304.314-.295zm1.956 7.844l-.349-.285-.362-.273-.275.371-.285.36-.292.353-.299.346-.264.372-.328.34.398.25.332.309.346.288.349.271.29-.346.3-.347.263-.374.284-.36.287-.352.305-.345-.348-.295-.352-.283zm3.888-5.954l.395.218.368.263.278-.36.232-.387.246-.375.26-.366.206-.399.276-.354.208-.396.259-.365.238-.378.225-.386.269-.359.245-.371.242-.373.236-.378.26-.364.23-.381.259-.36.256-.362.196-.4.267-.354.243-.37.277-.348.221-.388.222-.387.243-.372.29-.34.226-.383.233-.38.233-.377.275-.353.25-.368.203-.398.217-.389.314-.322.22-.387.233-.376.233-.378.274-.35.248-.37.188-.407.29-.349-.193-.061-.445-.213-.437-.23-.44-.227-.1-.084-.253.367-.232.39-.275.36-.22.395-.285.35-.259.368-.23.384-.208.402-.258.367-.245.377-.258.368-.241.377-.283.35-.228.385-.247.375-.255.368-.2.402-.235.377-.269.356-.243.373-.253.366-.258.364-.22.391-.243.377-.246.373-.264.36-.252.37-.245.373-.248.372-.234.382-.228.385-.242.375-.25.37-.256.364-.221.388-.285.347-.192.406-.272.356-.25.37-.236.38-.095.123.366.265.379.246zm-15.634 23.839l-.366-.263-.384-.223-.248.393-.25.398-.286.372-.216.419-.322.375.44.198.333.318.42.181.353.294.23-.419.26-.392.233-.407.326-.344.27-.412-.42-.234-.373-.254zm20.64-19.19l-.411-.183-.429-.169-.162.412-.158.402-.142.406-.135.408-.15.4-.159.398-.167.395-.129.41-.197.401.456.115.41.192.419.167.415.152.17-.388.166-.4.103-.42.146-.404.18-.39.154-.4.162-.396.17-.395.125-.399-.415-.151-.422-.163zm-42.034 22.839l-.302-.334-.328-.3-.336.342-.34.347-.37.314-.31.374-.405.309.389.287.257.381.372.266.282.363.324-.372.348-.339.326-.359.403-.277.361-.357-.36-.317-.311-.328zm63.695-17.72l.445-.121-.116-.426-.114-.417-.13-.41-.136-.408-.119-.41-.111-.414-.101-.416-.144-.406-.081-.438-.434.18-.443.093-.436.116-.423.127.095.412.106.419.169.398.125.411.089.42.116.413.107.414.1.417.138.395.424-.127.435-.122.439-.1zm7.207-3.85l-.214-.374-.219-.37-.204-.376-.196-.38-.187-.384-.226-.366-.172-.41-.386.267-.413.184-.401.206-.386.214.18.383.193.387.249.354.21.375.175.392.202.379.191.38.187.386.218.357.387-.215.399-.21.408-.191.409-.213-.204-.392-.2-.383zm-14.78 13.235l.448-.041.437-.042-.037-.476-.024-.487-.015-.486-.057-.483.012-.5-.464.083-.453-.004-.449.021-.44.034.034.478.034.487.029.485.006.486.026.493.462-.024.451-.024zm12.272-16.957l.392-.221-.226-.399-.182-.42-.211-.407-.271-.37-.167-.425-.244-.385-.209-.403-.21-.404-.231-.391-.207-.404-.203-.407-.229-.39-.184-.414-.241-.384-.172-.423-.2-.407-.228-.389-.251-.375-.198-.404-.213-.395-.199-.404-.217-.397-.173-.421-.23-.39-.211-.399-.202-.404-.259-.372-.221-.395-.186-.413-.214-.4-.203-.403-.197-.407-.238-.383-.215-.396-.21-.399-.191-.408-.204-.402-.212-.398-.209-.4-.224-.393-.23-.39-.215-.396-.206-.4-.198-.404-.088-.122-.145.044-.392.302-.449.205-.445.21-.138.067.211.395.18.415.245.379.17.418.224.388.239.379.203.4.198.402.215.392.191.404.213.395.239.377.193.403.179.41.227.386.209.394.194.4.249.37.175.408.247.37.193.4.216.389.23.383.185.406.208.395.21.39.218.39.193.4.224.386.192.403.195.401.259.367.182.406.209.392.172.411.233.379.231.38.21.392.16.418.228.384.22.387.219.387.177.409.201.396.243.36.373-.239.439-.135.385-.237zm-3.93 11.958l.435-.119.432-.137-.143-.44-.128-.44-.119-.441-.109-.444-.15-.43-.088-.464-.435.18-.443.092-.435.116-.423.127.114.436.109.445.152.432.128.438.122.437.104.448.443-.113.434-.123zm-2.645-9.379l.43-.136.413-.146-.117-.431-.111-.445-.13-.438-.103-.444-.126-.436-.156-.428-.105-.443-.091-.448-.142-.432-.123-.436-.107-.443-.167-.423-.087-.446-.166-.424-.107-.441-.131-.434-.145-.428-.095-.44-.12-.434-.125-.431-.132-.434-.106-.44-.139-.432-.104-.44-.107-.44-.177-.42-.094-.444-.123-.435-.083-.446-.15-.429-.148-.428-.124-.435-.069-.448-.142-.43-.135-.43-.134-.43-.087-.444-.116-.437-.169-.422-.154-.427-.04-.458-.15-.428-.133-.43-.132-.427-.158.03-.464.161-.449.21-.488.079-.134.057.118.43.119.438.142.43.116.436.111.435.14.427.091.442.154.425.077.445.108.437.14.428.166.418.107.435.124.43.109.437.126.43.078.442.141.422.119.43.11.43.174.416.13.429.094.44.122.432.112.433.105.434.15.422.126.43.12.431.099.438.113.434.122.43.119.43.133.426.141.424.124.428.116.431.107.434.148.423.075.444.181.414.09.439.115.43.131.427.03.177.432-.16.447-.079zm-5.504 17.54l.449-.041.437-.043-.034-.41-.02-.422-.011-.422-.053-.419.014-.437-.462.085-.453-.005-.449.021-.441.035.031.413.03.422.025.421.002.421.023.43.461-.025.451-.024zm1.081 2.693l-.025-.455-.041-.452-.042-.44-.44.035-.451.022-.45.012-.43.047-.013.44.089.451-.004.456.021.454.035.443.442-.033.451-.031.449-.027.455-.006-.017-.461-.029-.455zm8.688-8.482l-.127-.462-.143-.457-.142-.444-.421.128-.437.117-.437.107-.41.137.087.456.189.446.1.47.124.462.134.449.425-.126.434-.126.434-.121.443-.103-.122-.47-.131-.463zM140 70a69.998 69.998 0 01-83.656 68.655 70.005 70.005 0 01-55-54.999A70 70 0 11140 70zm-66.623 51.869l-.063-.45.048-.449-.084-.446.018-.452-.033-.448-.052-.448-.11-.437-.087-.442-.046-.454-.152-.428-.151-.424-.127-.433-.21-.402-.181-.411-.18-.411-.17-.417-.22-.394-.217-.393-.244-.377-.213-.4-.318-.325-.23-.387-.27-.359-.283-.351-.312-.325-.297-.337-.308-.329-.322-.314-.321-.316-.333-.302-.333-.302-.345-.29-.318-.321-.394-.227-.35-.282-.33-.313-.407-.199-.365-.261-.375-.253-.381-.242-.388-.229-.372-.255-.371-.256-.418-.167-.398-.209-.391-.217-.393-.217-.42-.161-.384-.225-.4-.196-.376-.249-.438-.125-.367-.271-.442-.115-.374-.259-.428-.146-.392-.221-.412-.181-.411-.182-.42-.164-.403-.204-.405-.192-.428-.142-.407-.193-.373-.26-.422-.159-.41-.186-.41-.188-.415-.175-.428-.146-.396-.216-.41-.184-.41-.188-.42-.168-.42-.165-.424-.156-.414-.185-.388-.24-.41-.19-.418-.172-.421-.168-.406-.201-.411-.193-.43-.153-.403-.21-.376-.26-.424-.167-.4-.216-.419-.175-.4-.214-.41-.191-.392-.217-.396-.21-.41-.184-.411-.177-.393-.215-.406-.192-.386-.223-.4-.201-.405-.19-.39-.22-.39-.218-.374-.247-.4-.198-.376-.243-.394-.208-.374-.244-.384-.226-.37-.25-.418-.171-.326-.316-.4-.203-.346-.283-.41-.189-.323-.312-.374-.242-.34-.287-.4-.206-.321-.316-.338-.292-.35-.277-.334-.295-.328-.3-.342-.285-.306-.324-.294-.333-.332-.296-.306-.322-.307-.32-.297-.33-.248-.37-.307-.323-.316-.316-.214-.393-.28-.345-.221-.384-.24-.374-.218-.385-.222-.383-.27-.357-.206-.394-.18-.406-.186-.4-.208-.392-.144-.421-.123-.428-.185-.405-.124-.424-.16-.415-.199-.403-.075-.447-.094-.439-.121-.431-.146-.425-.08-.441-.059-.445-.075-.441-.095-.438-.086-.44-.005-.45-.116-.438-.03-.449-.03-.447-.05-.446.04-.45-.037-.448.003-.448.025-.447.044-.447.015-.448.047-.445-.016-.451.092-.441.007-.45.054-.447.114-.436.137-.43.055-.445.087-.44.135-.427.096-.438.122-.432.082-.441.133-.429.157-.42.128-.43.15-.424.212-.397.16-.418.174-.413.162-.418.25-.377.162-.42.217-.391.225-.388.197-.403.25-.372.238-.379.219-.391.245-.374.229-.387.27-.36.284-.346.287-.343.254-.37.29-.341.283-.349.293-.34.283-.35.334-.3.286-.346.364-.268.325-.31.338-.294.286-.35.37-.259.359-.269.33-.303.338-.294.353-.28.384-.232.321-.32.393-.224.398-.209.35-.278.392-.218.4-.202.363-.264.39-.218.399-.203.387-.224.39-.223.414-.172.411-.175.41-.18.416-.166.405-.19.406-.193.433-.122.432-.123.404-.2.431-.123.423-.15.427-.14.444-.077.41-.202.447-.058.422-.155.443-.07.432-.115.443-.071.438-.096.447-.046.439-.1.44-.085.447-.045.444-.064.445-.067.448-.044.44-.089.454.025.445-.06.447-.048.452.017.448-.08.449-.028.452.03.453-.008.45-.032.455-.006h.438l.442-.054.438.082.44-.026.438.014.44-.022.434.077.436.03.434.01.438.022.431.076.436.012.433.061.431.059.438.012.432.06.426.097.425.088.435.044-.311-.327-.191-.425-.298-.347-.245-.382-.288-.353-.233-.396-.29-.354-.302-.344-.265-.372-.24-.387-.257-.378-.234-.393-.32-.335-.291-.356-.27-.374-.27-.397.342-.313.347-.28.328-.3.282-.347.338-.29.353-.273.296-.333.283-.346.357-.268.314-.314.356-.271.282-.35.33-.3.313-.32.318-.314.348-.282.314-.316.323-.308.362-.265.297-.334.283-.348.327-.306.373-.253.31-.324.304-.329.315-.32.328-.3.349-.282.308-.324.317-.314.343-.288.3-.333.334-.297.348-.28.31-.318.343-.285.311-.319.303-.328.348-.284.3-.335.311-.323.358-.271.291-.342.311-.326.334-.301.338-.296.299-.332.349-.282.314-.323.346-.289.32-.32.325-.314.336-.305.325-.285.314.282.33.297.327.302.31.32.328.302.302.33.352.278.32.313.327.306.299.332.34.29.293.338.326.304.339.291.313.32.335.294.33.302.306.329.31.325.343.286.308.323.342.29.319.315.316.314.334.3.325.307.345.283.323.306.32.308.314.316.331.298.299.336.336.3.32.313.312.32.3.335.352.283.336.298.326.31.32.309.312.322.348.288.327.31.324.315.3.342.317.326.363.25.415-.053.43-.08.408-.172.44-.05.43-.094.423-.122.424-.11.427-.103.436-.072.426-.112.423-.13.44-.056.423-.129.436-.071.411-.168.435-.084.427-.12.435-.091.438-.119.309.337.26.368.303.331.325.31.293.341.331.307.25.379.343.297.294.342.278.358.321.318.315.324.293.342.267.367.342.297.294.34.292.342.324.315.309.328.323.316.305.335.276.36.308.331.283.352.296.341.325.313.304.334.294.344.302.335.327.311.291.342.315.32.286.347.29.346.333.308.267.37.3.34.308.33.315.324.29.35.335.31.272.365.357.282.29.35.252.384.34.305.3.345.323.323.27.375.332.328.359-.267.308-.318.361-.258.297-.33.34-.28.321-.302.343-.28.342-.28.328-.297.356-.256.329-.296.328-.299.308-.32.367-.254.334-.296.319-.314.343-.287.332-.278.316-.297.295-.316.326-.286.38-.23.261-.356.345-.272.345-.271.302-.32.32-.302-.189-.406-.182-.41-.185-.41-.207-.397-.199-.403-.227-.39-.188-.406-.236-.383-.152-.427-.228-.388-.235-.383-.234-.383-.226-.388-.206-.398-.225-.389-.25-.372-.225-.39-.245-.377-.233-.382-.261-.367-.185-.414-.285-.35-.256-.369-.22-.393-.297-.34-.217-.398-.289-.343-.271-.359-.257-.368-.252-.372-.295-.34-.321-.319-.239-.383-.277-.354-.278-.353-.284-.346-.304-.332-.279-.352-.305-.33-.3-.334-.286-.347-.293-.34-.312-.324-.308-.33-.353-.282-.261-.372-.337-.3-.347-.291-.268-.364-.322-.314-.312-.321-.363-.27-.33-.304-.301-.335-.354-.277-.301-.333-.347-.287-.348-.284-.376-.248-.333-.3-.335-.3-.329-.304-.361-.266-.345-.286-.33-.308-.386-.231-.348-.284-.39-.224-.365-.26-.349-.282-.363-.263-.354-.273-.383-.235-.346-.288-.387-.228-.363-.262-.402-.204-.369-.253-.391-.218-.368-.258-.365-.26-.403-.198-.377-.242-.387-.228-.399-.203-.37-.256-.4-.2-.392-.218-.406-.19-.382-.236-.416-.17-.4-.204-.407-.184-.41-.181-.407-.187-.396-.208-.417-.164-.392-.222-.434-.125-.39-.225-.43-.132-.414-.171-.412-.173-.42-.157-.414-.17-.423-.145-.414-.176-.429-.128-.42-.154-.423-.147-.432-.118-.415-.17-.445-.08-.424-.143-.425-.137-.427-.135-.421-.155-.443-.08-.44-.085-.43-.13-.421-.158-.441-.083-.44-.083-.438-.097-.435-.103-.436-.104-.44-.085-.444-.048-.446-.053-.435-.111-.441-.076-.447-.039-.438-.094-.437-.102-.447-.041-.438-.099-.45-.008-.441-.095-.449-.011-.442-.075-.451.014-.443-.082-.45.041-.447-.047-.442-.089-.451.026-.444-.09-.45.038-.447-.015-.449-.022-.447.03-.448-.047-.45.003-.448-.003-.448.03-.448.02-.449-.025-.448.005-.448.02-.447.043-.445.058-.45-.012-.448.018-.445.06-.443.076-.45-.007-.45.012-.445.05-.44.101-.444.051-.45.024-.437.105-.443.07-.45.017-.443.064-.437.102-.441.08-.444.055-.436.114-.442.067-.437.104-.438.09-.439.091-.438.094-.431.12-.445.07-.434.112-.418.17-.435.105-.43.122-.438.1-.423.147-.435.105-.427.14-.42.153-.428.132-.436.106-.425.143-.426.144-.418.16-.42.157-.4.204-.425.145-.4.204-.444.095-.4.207-.412.174-.424.15-.4.2-.406.188-.384.238-.429.14-.395.21-.413.175-.39.221-.398.204-.424.158-.378.238-.41.182-.368.261-.401.2-.392.217-.39.222-.386.225-.376.242-.409.193-.341.297-.383.233-.376.24-.375.246-.411.189-.34.298-.405.197-.356.274-.35.28-.358.268-.352.277-.395.218-.345.286-.382.238-.353.275-.34.292-.347.284-.34.291-.368.258-.315.32-.355.273-.327.308-.356.272-.305.331-.383.244-.303.333-.315.318-.35.28-.317.318-.312.322-.34.294-.3.334-.316.319-.331.303-.3.334-.33.305-.302.331-.287.346-.31.323-.298.336-.31.325-.277.352-.264.364-.361.28-.273.358-.26.367-.3.334-.263.364-.267.359-.251.372-.321.319-.236.383-.262.363-.294.34-.24.38-.23.385-.261.364-.249.372-.235.382-.266.361-.293.344-.217.393-.195.406-.3.34-.179.416-.277.356-.21.396-.207.398-.245.376-.152.427-.256.37-.225.387-.212.396-.225.389-.144.427-.199.402-.235.383-.191.406-.184.408-.14.428-.196.403-.18.408-.183.41-.18.41-.158.418-.215.395-.171.415-.176.414-.097.44-.13.43-.161.417-.202.402-.114.435-.172.415-.155.42-.102.437-.155.422-.127.428-.12.431-.105.436-.098.437-.117.432-.129.429-.117.432-.092.437-.087.44-.189.416-.06.447-.047.447-.143.426-.057.445-.101.436-.096.438-.027.45-.098.436-.086.44-.065.443-.078.44-.021.45-.072.441-.015.45-.138.434-.004.45-.023.448-.07.443-.005.448-.037.447-.047.445-.048.446-.011.447-.011.448-.03.448-.033.446.027.449-.045.447-.026.448-.01.449.036.449.04.448-.001.45.003.447.019.447.053.446-.004.45.013.447-.002.45.04.446.07.444-.007.45.063.445-.003.45.087.442.078.443-.008.451.103.439.037.448.08.44.07.443.086.44.08.44.055.445.078.442.06.444.096.44.127.43.092.438.043.45.154.423.088.44.1.436.094.438.13.43.091.44.196.41.095.437.162.418.102.438.152.42.109.436.12.433.122.431.196.405.155.42.16.419.139.425.154.42.132.429.17.415.158.419.185.409.231.387.136.429.185.407.188.407.184.408.183.408.175.413.211.395.192.404.198.402.174.415.271.362.183.41.245.376.214.393.154.426.255.372.214.393.233.382.237.38.224.389.26.366.219.391.285.348.231.383.28.351.203.403.29.345.247.372.249.372.286.346.258.365.271.356.247.374.282.349.258.366.288.343.279.351.297.335.314.32.28.35.22.398.302.333.342.296.284.347.308.325.304.329.297.335.313.322.307.325.34.297.292.341.319.316.352.279.293.343.36.274.282.352.334.301.362.268.31.324.324.312.332.3.353.277.354.276.334.298.36.268.333.302.37.253.363.263.34.294.33.305.36.268.399.213.346.287.371.25.359.27.377.241.382.235.348.285.383.233.364.261.388.226.358.271.38.242.423.162.378.241.39.219.372.251.391.218.392.217.376.244.42.164.382.239.405.191.419.161.404.194.396.21.391.218.408.184.413.176.403.193.399.205.411.176.418.163.413.171.413.174.414.168.424.149.428.128.422.155.409.182.42.156.42.156.417.163.441.089.412.186.44.089.435.111.412.183.431.12.435.109.43.122.44.087.433.117.435.102.43.125.433.115.441.082.436.102.444.063.437.099.448.038.43.135.443.063.437.098.452.017.436.099.445.056.436.116.45.008.442.081.447.026.448.023.44.094.446.035.444.064.451-.029.445.069.45-.003.444.035.45.015h.447l.446.062.45-.034.447.017.448.008.449.028.41.01.402-.043.215-.384.283-.348.154-.423.229-.382.237-.378.166-.414.13-.427.177-.407.204-.399.13-.427.09-.437.118-.429.06-.442.102-.432.098-.434.028-.444.035-.443.02-.444.074-.442zm38.768-54.048l.165.047.439.065.445.014.426.142.442.029.439.047.433.091.436.06.435.082.444.02.437.073.436.086.436.085.448-.013.427.134.443.03.438.068.444.032.428.134.447.01.434.09.438.066.439.04.435.073.429.11.442.042.442.05.445.02.431.116.437.076.442.05.438.075.444.032.44.073.437.085.446.032.438.073.434.113.449.012.442.08.444.055-.021-.445.004-.44.008-.44.03-.439-.028-.438-.023-.439.006-.44-.043-.437-.051-.436-.02-.416-.437.008-.445.042-.446.043-.449-.016-.444.052-.447.015-.448.012-.443.068-.45.012-.449.001-.446.07-.45-.011-.445.056-.449-.004-.445.06-.45.013-.448.037-.446.05-.449.004-.447.043-.446.01-.442.074-.448.003-.446.048-.45.02-.448.025-.448.028-.449.013-.449.034-.449.035-.447.054-.452-.006-.45.059-.451-.01-.45.017-.448.063h-.453l-.453.033-.442.027-.02-.156.069-.396.026-.397-.03-.398.045-.205-.017-.223.133-.02.449-.026.445-.067.45-.017.45.001.448-.037.445-.086.452.022.45-.032.448-.073.451-.015h.451l.447-.062.448-.05.45-.024.452-.004.448-.07.453.011.445-.086.454.016.447-.039.449-.002.447-.044.45-.03.451-.039.45-.03.447-.061.451-.021.452-.023.451-.036.453-.014.452-.034.45-.06.45-.044.452-.015.454-.024.453-.044.454-.05.46-.001-.034-.436-.036-.435-.113-.425.005-.44-.093-.427-.029-.436-.053-.433-.089-.427-.053-.433-.087-.43-.415.153-.438.087-.426.122-.425.134-.429.111-.435.094-.423.142-.431.112-.417.161-.431.116-.433.108-.431.114-.421.146-.425.132-.432.11-.436.1-.421.153-.439.084-.415.17-.433.098-.427.117-.424.13-.427.124-.425.137-.431.12-.424.14-.442.072-.431.12-.416.175-.433.113-.43.123-.428.134-.427.139-.442.081-.419.16-.444.08-.425.15-.445.085-.427.164-.002-.198-.094-.486-.061-.491-.141-.475-.004-.154.43-.116.432-.104.415-.164.43-.106.434-.095.422-.14.434-.096.417-.157.433-.108.422-.141.434-.102.423-.139.423-.138.424-.134.441-.073.414-.173.434-.107.421-.147.435-.096.419-.142.428-.112.416-.157.431-.104.431-.116.424-.14.43-.117.434-.098.43-.12.419-.159.429-.124.433-.11.439-.095.419-.163.435-.105.428-.125.435-.109.422-.158.442-.094.455-.121-.094-.475-.116-.446-.124-.444-.072-.455-.099-.45-.14-.44-.081-.454-.139-.44-.152-.435-.107-.418-.383.19-.404.194-.399.204-.386.226-.379.24-.409.182-.392.215-.388.223-.408.187-.391.22-.404.198-.395.213-.399.206-.378.243-.377.244-.421.163-.391.221-.41.188-.368.261-.398.204-.39.215-.399.2-.391.215-.388.223-.416.176-.388.231-.391.22-.401.2-.395.215-.405.2-.397.214-.389.226-.373.26-.416.178-.394.221-.388.227-.419.177-.389.233-.413.193-.389.226-.062-.163-.144-.475-.224-.442-.167-.467-.053-.11.386-.222.39-.23.387-.233.408-.196.395-.217.396-.217.406-.197.393-.224.39-.229.412-.19.375-.26.405-.205.409-.193.406-.2.391-.228.396-.218.407-.202.379-.252.399-.217.406-.196.41-.186.377-.25.415-.178.399-.213.401-.211.399-.219.381-.248.407-.198.395-.224.407-.205.402-.213.376-.259.428-.166.404-.212.381-.252.392-.23.42-.18.391-.24.425-.177.363-.263-.115-.425-.182-.425-.095-.454-.158-.433-.163-.431-.156-.433-.181-.425-.143-.439-.183-.422-.179-.425L125.3 47l-.338.276-.323.313-.34.296-.364.265-.333.3-.361.267-.319.316-.34.292-.349.284-.335.297-.334.301-.363.268-.347.288-.34.294-.318.318-.367.263-.335.3-.329.308-.356.276-.322.314-.325.31-.335.295-.345.285-.337.294-.359.27-.335.301-.34.298-.368.262-.326.311-.34.294-.334.306-.357.279-.321.318-.355.28-.326.312-.321.32-.376.256-.339.301-.353.288-.341.302-.349.293-.311.315-.304.321-.324.3-.365.255-.297.33-.332.293-.287.34-.372.247-.31.316-.335.29-.284.342-.325.301-.338.288-.3.327-.342.285-.317.313-.364.262-.285.347-.357.27-.306.329-.335.295-.325.306-.294.338-.336.294-.352.274-.29.34-.363.264-.296.334-.337.29-.315.314-.357.27-.268.362-.355.275-.305.326-.36.267-.326.306-.316.318-.332.3-.31.322-.332.3-.3.332-.35.28-.3.332-.33.3-.358.27-.301.333-.318.317-.36.27-.33.304-.33.301-.317.316-.334.297-.327.305-.31.324-.3.334-.345.287-.342.286-.323.307-.302.328-.341.287-.341.29-.293.343-.358.276-.29.345-.375.255-.303.332-.342.293-.325.31-.31.328-.345.284-.296.34-.326.312-.34.294-.353.285-.338.302-.317.327-.33.312-.027-.023-.342.28-.3.332-.321.31-.336.298-.284.353-.371.262-.289.346-.345.288-.286.352-.316.32-.347.29-.31.32-.336.3-.3.338-.356.28-.303.338-.32.32-.322.322-.324.332-.335-.316-.29-.349-.333-.306-.328-.323.16-.092.284-.352.323-.31.349-.277.353-.275.318-.318.338-.295.323-.315.318-.32.347-.293.333-.306.316-.327.344-.293.311-.333.327-.319.342-.303.312-.336.305-.344.326-.326.368-.299-.308-.332-.296-.327-.301-.322-.296-.328-.31-.312-.3-.326-.282-.34-.315-.313-.282-.342-.283-.343-.317-.312-.309-.318-.324-.303-.283-.343-.306-.32-.278-.344-.297-.33-.318-.308-.31-.319-.26-.362-.32-.31-.275-.35-.322-.308-.3-.327-.28-.343-.333-.298-.276-.349-.303-.326-.294-.332-.296-.328-.33-.297-.27-.351-.29-.334-.319-.308-.287-.34-.31-.32-.302-.327-.3-.327-.307-.323-.27-.359-.345-.287-.277-.351-.27-.352-.308-.322-.354-.282-.286-.344-.31-.326-.267-.363-.33-.31-.257-.354.085-.414.15-.413.076-.435.133-.419.116-.422.133-.417.105-.427.086-.434.137-.421.164-.427-.417-.196-.408-.187-.387-.231-.412-.18-.419-.162-.386-.235-.41-.184-.408-.191-.43-.132-.418-.164-.4-.213-.448-.08-.407-.195-.426-.139-.423-.15-.425-.145-.446-.073-.415-.182-.438-.1-.443-.078-.431-.123-.438-.107-.448-.055-.433-.13-.444-.075-.445-.072-.45-.029-.439-.118-.448-.04-.45-.017-.448-.048-.448-.036-.45-.027-.448-.015-.45.04-.449-.05h-.45l-.448.015-.449.043-.449.012-.45.005-.441.1h-.453l-.44.09-.446.059-.44.092-.44.082-.442.084-.431.126-.445.07-.433.12-.426.142-.42.158-.42.159-.423.144-.422.15-.42.156-.405.195-.425.147-.382.24-.4.202-.423.158-.372.253-.373.248-.4.203-.382.235-.37.254-.36.266-.355.277-.333.303-.362.267-.318.318-.325.31-.32.313-.302.33-.343.294-.292.34-.267.362-.273.355-.266.36-.26.364-.235.381-.225.387-.252.37-.219.392-.176.412-.195.402-.148.422-.203.401-.13.43-.16.42-.094.438-.111.434-.06.444-.093.438-.038.446-.078.443.024.45-.029.446.015.447.06.444-.02.451.076.443.095.437.07.44.102.436.1.437.167.416.158.418.189.406.118.434.22.392.195.402.228.385.225.387.25.37.21.398.285.346.251.368.283.346.258.367.32.315.293.336.3.334.352.282.335.295.317.314.312.324.334.301.368.256.348.287.362.268.385.231.34.296.384.234.383.234.359.268.387.224.385.225.401.2.382.234.386.224.38.238.403.196.401.199.395.214.412.177.393.216.408.185.407.19.401.2.397.21.411.176.4.202.42.155.412.175.386.234.424.153.422.153.403.197.413.176.424.15.42.164.408.182.41.18.418.165.412.178.414.177.403.202.423.157.429.136.403.204.43.136.411.185.413.185.432.133.405.207.42.173.44.122.413.195.427.143.41.181.417.169.41.188.404.193.41.187.417.164.392.227.411.185.42.167.4.21.407.19.413.18.378.25.414.181.392.22.395.215.406.194.378.245.383.235.383.234.393.217.392.219.37.255.377.243.373.247.374.247.355.274.377.242.36.267.378.24.342.291.344.287.326.309.354.276.366.261.313.323.369.259.283.35.342.29.324.307.3.332.316.316.278.351.283.345.315.318.304.326.272.355.273.352.266.359.237.377.242.384.255.373.245.381.223.394.22.395.243.383.214.4.197.408.201.406.151.428.18.416.147.429.19.411.158.426.132.433.103.441.172.42.08.447.1.441.114.437.099.442.067.448.059.449.064.448.042.45.076.446.09.445.031.453.014.455-.012.453.07.452-.01.455.01.458.025.451-.072.448.044.452-.08.447-.06.446-.018.451-.014.451-.074.445-.077.444-.027.451-.082.443-.089.441-.079.444-.094.441-.132.431-.074.412.414-.048.428-.133.436-.098.428-.129.419-.163.442-.077.425-.14.424-.14.423-.145.432-.118.436-.105.405-.194.432-.117.422-.149.423-.144.408-.186.429-.128.41-.176.423-.148.416-.164.396-.21.41-.178.406-.187.424-.146.384-.232.428-.138.411-.176.406-.187.384-.232.398-.204.402-.194.402-.196.395-.208.39-.22.407-.183.369-.257.41-.183.37-.252.395-.211.369-.252.406-.19.371-.252.369-.252.388-.223.378-.239.365-.257.369-.25.345-.287.41-.19.355-.274.36-.265.378-.238.348-.283.334-.298.379-.239.343-.287.361-.264.344-.286.335-.295.331-.3.35-.279.363-.261.348-.281.306-.327.33-.302.333-.299.367-.259.304-.328.312-.321.353-.278.311-.322.341-.292.298-.336.341-.294.302-.332.337-.298.302-.334.29-.342.319-.317.261-.368.311-.323.31-.324.283-.35.282-.349.304-.329.296-.338.252-.373.299-.334.282-.35.262-.363.289-.343.263-.364.287-.345.21-.4.306-.332.245-.376.266-.365-.259-.409-.207-.427-.203-.428-.236-.413-.255-.405-.161-.454-.237-.406.386-.213.401-.206.414-.184.387-.268.191.45.248.407.21.427.219.424.241.428.232-.388.223-.379.235-.372.228-.375.234-.372.243-.366.222-.38.215-.384.188-.398.227-.376.217-.382.207-.388.23-.377.192-.395.149-.416.205-.388.193-.395.17-.405.226-.38.178-.4.193-.395.175-.404.187-.398.127-.418-.332-.302-.316-.335-.292-.358-.349-.304-.304-.35-.341-.314-.313-.32.315-.297.305-.333.322-.316.308-.31.358.314.31.383.392.3.345.352.33.377.155-.427.142-.42.123-.427.227-.39.113-.43.094-.436.144-.42.167-.412.12-.427.114-.429.104-.432.174-.41.117-.429.089-.435.084-.437.148-.42.105-.43.13-.425.044-.445.111-.43.11-.43.072-.438.103-.432.073-.438.076-.436.078-.438.1-.433.046-.442.061-.438-.414-.176-.434-.116-.405-.192-.436-.114-.413-.174-.418-.158-.425-.14-.406-.188-.411-.175-.429-.125-.419-.155-.41-.177-.42-.152-.415-.17-.417-.166-.43-.127-.425-.144-.402-.2-.432-.121-.406-.191-.422-.152-.432-.124-.403-.203-.418-.159-.429-.126-.411-.171-.409-.177-.42-.151-.419-.158-.419-.164-.434-.12-.409-.18-.422-.152-.423-.155-.419-.162-.433-.125-.415-.178-.414-.178-.433-.126-.412-.181-.411-.189-.429-.142-.429-.145-.402-.187.079-.126.214-.444.189-.456.217-.444.049-.126.135.022.423.155.42.165.416.173.426.152.428.138.418.167.434.125.416.17.423.155.407.195.438.116.415.178.431.14.413.184.431.133.408.196.438.116.426.146.429.143.419.172.427.148.409.195.442.094.418.167.405.196.415.177.434.128.428.147.423.16.434.124.423.16.417.182.438.123.414.187.411.197.431.141.434.134.42.168.418.183.435.136.44.125.432.19.034-.47.044-.453.036-.454.079-.45.01-.456.033-.455.067-.452.007-.456-.006-.456.016-.44-.43-.07-.44-.063-.44-.07-.439-.064-.439-.069-.439-.061-.44-.056-.437-.077-.439-.065-.436-.09-.447-.02-.438-.087-.442-.06-.441-.055-.435-.1-.443-.035-.442-.058-.441-.068-.438-.08-.442-.057-.446-.037-.431-.12-.435-.091-.447.008-.438-.076-.436-.097-.44-.073-.441-.063-.439-.074-.448-.015-.438-.092-.445-.048-.437-.098-.446-.045-.436-.108-.449-.022-.44-.077-.444-.058-.451-.026-.437-.118-.457-.035.05-.19.155-.47.08-.487.148-.473-.019-.175zm10.501 20.002l-.314-.322-.363-.27-.279-.352-.341-.292-.311-.317-.309-.315-.329-.301-.311-.32-.307-.324-.327-.3-.291-.337-.337-.29-.282-.35-.305-.324-.326-.3-.344-.279-.302-.322-.313-.31-.302-.322-.317-.31-.283-.346-.327-.298-.312-.313-.305-.322-.351-.274-.32-.307-.293-.335-.315-.314-.306-.32-.302-.325-.333-.292-.316-.31-.312-.313-.296-.329-.306-.319-.313-.312-.312-.316-.322-.304-.328-.3-.316-.31-.308-.317-.302-.322-.332-.293-.095-.154-.081.166-.367.33-.362.333-.363.331-.134.099.325.315.297.347.348.294.288.353.33.309.343.295.312.324.305.325.323.314.302.333.321.318.342.293.304.33.293.342.332.305.317.317.304.329.349.282.289.342.346.284.304.327.322.311.334.301.297.337.315.317.317.314.324.31.304.329.329.305.304.331.305.329.357.276.295.338.316.316.286.344.336.296.335.298.317.315.276.355.333.303.326.308.324.308.291.341.31.322.34.276.287-.338.379-.258.299-.339.31-.326-.327-.31-.293-.344zM94.877 104.16l-.445-.071-.45-.055-.052.459-.065.454-.076.451-.084.449-.042.453-.112.459.47.016.442.1.444.075.437.06.077-.444.085-.45.04-.456.066-.452.07-.449.091-.45-.45-.081-.446-.068zm-1.146 7.444l-.446-.056-.437-.051-.054.408-.07.418-.08.414-.036.421-.107.424.47.015.441.101.444.075.438.06.057-.411.06-.418.066-.417.087-.412.07-.425-.456-.074-.447-.072zm.531-3.451l-.446-.055-.436-.052-.065.473-.08.481-.089.478-.046.485-.118.486.47.017.442.1.444.075.437.06.068-.475.07-.482.076-.481.096-.476.08-.488-.457-.074-.446-.072zm-1.066 6.928l-.447-.055-.436-.051-.06.439-.074.449-.084.445-.041.452-.112.453.47.017.442.1.444.075.437.06.062-.442.066-.45.07-.447.09-.443.075-.455-.456-.075-.446-.072zm-.52 3.38l-.447-.055-.436-.052-.061.45-.076.459-.086.455-.043.462-.113.464.47.016.442.1.443.075.438.06.064-.452.067-.459.071-.458.093-.453.076-.466-.456-.074-.446-.072zm-.535 3.472l-.446-.055-.436-.052-.063.461-.078.47-.087.466-.045.473-.115.474.47.017.442.1.443.075.438.06.065-.463.069-.47.073-.469.095-.464.078-.476-.457-.075-.446-.072zm-.931-27.811l.145-.432.163-.424.18-.42.12-.442.198-.412.121-.44.18-.42.154-.426.14-.431.19-.413.164-.425.16-.424.153-.426.178-.414.146-.427.18-.413.177-.417.11-.444.19-.414.163-.423.201-.408.136-.433.138-.431.161-.424.214-.402.143-.432.151-.428.151-.427.196-.409.169-.42.116-.438.133-.434.242-.39.135-.433.152-.426.151-.428.197-.41.168-.432-.214-.003-.468-.165-.486-.1-.467-.157-.131-.056-.143.43-.17.422-.173.419-.144.43-.192.408-.13.433-.206.404-.176.418-.144.428-.119.436-.175.417-.16.42-.173.415-.157.421-.203.406-.142.426-.162.418-.17.413-.11.435-.151.42-.188.41-.162.42-.17.417-.177.413-.132.43-.158.42-.162.42-.182.41-.17.416-.16.42-.164.419-.148.423-.142.426-.157.419-.166.416-.174.412-.135.428-.206.401-.103.44-.19.41-.168.416-.15.414.413.159.417.174.423.156.428.18.174-.44.132-.44.181-.421.196-.414zm11.58 8.933l.45-.005.46-.023-.023-.442-.023-.431-.039-.428-.046-.427-.03-.426-.021-.428-.011-.428-.053-.427.013-.445-.462.084-.453-.004-.45.02-.44.035.005.423.015.432.08.424.035.429-.003.428.027.428.016.428.01.429.05.414.441-.034.452-.026zm7.624-30.547l-.299.393-.293.396-.295.394-.139.142.407.218.354.282.387.231.395.215.371.248.369.254.377.236.365.26.377.24.394.212.367.258.356.27.385.225.374.24.366.257.4.202.353.271.397.203.362.253.376.232.386.22.358.264.374.243.376.238.379.233.364.255.383.226.363.257.366.254.405.194.358.266.374.24.351.275.387.216.388.218.373.239.342.286.386.223.38.23.381.23.354.271.37.247.399.199.39.213.356.317.245-.414.235-.385.234-.385.277-.377-.395-.269-.42-.193-.357-.29-.404-.22-.379-.249-.381-.25-.391-.228-.381-.252-.376-.255-.392-.23-.365-.274-.399-.218-.355-.284-.374-.257-.393-.23-.406-.207-.372-.257-.38-.242-.37-.255-.382-.239-.355-.282-.39-.226-.381-.247-.376-.255-.408-.199-.386-.237-.365-.269-.381-.245-.375-.253-.373-.259-.396-.22-.383-.241-.379-.245-.367-.264-.374-.251-.38-.244-.378-.247-.387-.233-.391-.228-.383-.241-.378-.25-.371-.257-.395-.221-.36-.287-.056.175zm-11.311 5.765l-.491-.046-.488-.071-.152-.016-.091.448-.067.452-.035.454-.088.447-.103.442-.05.45-.069.448-.086.446-.023.454-.105.442-.026.455-.085.443-.06.447-.046.45-.096.443-.071.446-.066.444-.058.445-.086.44-.052.449-.088.442-.085.444-.013.456-.098.442-.069.445-.109.439-.04.45-.043.449-.068.446-.123.437-.048.45-.056.447-.057.447-.104.438-.076.444-.02.451-.037.45-.154.43-.04.451-.058.447-.056.448-.105.439-.067.466.475.016.438.12.451.034.433.076.069-.441.05-.453.075-.448.08-.447.05-.449.1-.441.037-.452.116-.44.082-.445.05-.45.024-.453.083-.443.066-.445.082-.443.064-.447.113-.439.048-.446.07-.442.078-.44.015-.453.06-.446.097-.441.069-.447.078-.443.085-.442.038-.449.065-.445.07-.445.09-.44.078-.445.068-.445.072-.444.055-.445.048-.447.065-.444.074-.442.083-.441.04-.449.117-.436.007-.454.1-.44.075-.444.058-.445.063-.193-.203-.001-.493.014zm3.363 19.486l.447-.06.444-.017-.017-.453-.034-.457-.006-.457-.03-.455-.062-.45-.009-.456.006-.456-.047-.454-.027-.453-.011-.455-.074-.451.009-.455-.071-.45-.011-.452-.036-.453-.051-.451v-.453l-.025-.45-.03-.448-.038-.451-.009-.454-.045-.451-.008-.454-.012-.453-.083-.449.001-.453-.027-.452.014-.454-.056-.45-.054-.451-.029-.452.028-.454-.048-.45-.041-.45-.039-.45.009-.452-.021-.452-.076-.447-.059-.45.058-.457-.056-.451-.038-.45-.04-.45.016-.194-.193.02-.476.14-.495.005-.488.072-.144-.007.025.452.047.454.022.455.016.455.046.45-.005.453.061.45-.019.456.013.454.046.45.074.45.013.45.03.45.013.451.033.452-.018.454.049.446.026.448.016.448.081.446.037.45-.002.453.028.452.018.45.011.451.057.448.032.45.026.45.004.45.019.452.028.45.024.45.041.448.048.448.031.448.021.449.013.45.055.448-.021.452.089.446-.004.452.021.45.038.448.003.142.448.018.45-.042zm.595 9.74l.45-.024.451-.042-.047-.46-.032-.457-.022-.457-.012-.455-.056-.453.013-.471-.463.083-.452-.004-.45.021-.44.034.019.45.012.458.057.454.032.456.026.453.007.459.456-.017.451-.028zm-7.345-8.79l-.441-.091-.455-.075-.071.437-.07.426-.051.427-.046.428-.061.422-.071.423-.08.42-.038.429-.108.433.47.016.441.1.444.075.438.06.085-.415.077-.425.012-.432.056-.427.094-.418.065-.424.075-.421.082-.421.038-.417-.438-.06-.447-.07z" fill="#fff"/></g><defs><clipPath id="clip0"><path fill="#fff" d="M0 0h140v140H0z"/></clipPath></defs></svg>